<svg xmlns="http://www.w3.org/2000/svg" width="137" height="31"><g fill="none" fill-rule="evenodd"><path fill="#7A8499" d="M135.1 18.208c.334-.223.594-.112.705.111l1.077 2.005c.11.223 0 .445-.223.63-1.336.928-3.34 1.485-5.493 1.485-2.97 0-5.383-.928-6.978-2.635-1.448-1.485-2.265-3.638-2.265-6.161 0-2.19.706-4.083 1.894-5.494 1.707-2.115 4.416-3.266 7.423-3.266 2.153 0 4.009.63 5.345 1.559.223.185.334.408.223.63l-1.114 2.079c-.11.26-.408.297-.705.112-1.262-.78-2.375-1.114-3.712-1.114-1.707 0-3.155.631-4.12 1.745-.853.965-1.336 2.264-1.336 3.786 0 1.596.52 3.006 1.447 4.008.928 1.003 2.302 1.56 4.009 1.56 1.374 0 2.599-.298 3.823-1.04M115.243 5.18h2.896a.45.45 0 01.445.445v15.998c0 .26-.186.445-.445.445h-2.896c-.26 0-.483-.185-.483-.445V5.625c0-.223.223-.445.483-.445m-6.495 1.262c-1.224-1.114-2.969-1.596-4.899-1.596-2.338 0-4.268.89-5.493 2.598h-.111V5.625c0-.223-.223-.445-.483-.445h-2.747c-.26 0-.482.222-.482.445v3.469c.531.407.871 1.042.883 1.735l.194 1.938c.004.046.006.092.005.138a2.238 2.238 0 01-.542 1.412 3.133 3.133 0 01-.54 1.462v5.844c0 .26.223.445.482.445h2.895c.26 0 .446-.185.446-.445v-7.35c0-1.373.26-2.783.891-3.934.816-1.448 2.153-2.227 3.86-2.227 1.262 0 2.116.371 2.709.965.854.89 1.077 2.264 1.077 3.786v8.76c0 .26.186.445.445.445h2.932a.43.43 0 00.446-.445v-9.688c0-2.561-.705-4.38-1.968-5.493"/><path d="M70.144-.772H94.72v24.576H70.144z"/><path fill="#FFF" d="M82.337 20.613a7.312 7.312 0 110-14.625 7.312 7.312 0 010 14.625"/><path fill="#00B6FF" d="M94.329 10.773c.01-.52-.347-.962-.832-1.08a2.023 2.023 0 00-1.968-1.558H91.2a10.252 10.252 0 011.072 7.742A2.018 2.018 0 0094 13.882l-.022-.18c.322-.184.543-.526.55-.923l-.2-2.006zM73.472 8.135h-.327c-.957 0-1.757.666-1.968 1.559a1.088 1.088 0 00-.832 1.079l-.201 2.006c.008.397.228.739.55.923l-.021.18c0 1.017.75 1.85 1.727 1.995a10.237 10.237 0 01-.328-2.577 10.2 10.2 0 011.4-5.165m-.18-1.175c2.001-2.847 5.308-4.712 9.044-4.712 3.737 0 7.044 1.865 9.045 4.712h.148a3.19 3.19 0 011.796.553C91.24 3.571 87.098.877 82.336.877c-4.761 0-8.904 2.694-10.988 6.637a3.187 3.187 0 011.797-.554h.147zm9.045 9.961a3.62 3.62 0 110-7.24 3.62 3.62 0 010 7.24z"/><path fill="#272B33" d="M84.348 13.3a2.01 2.01 0 11-4.022.002 2.01 2.01 0 014.022-.002"/><path fill="#FFF" d="M81.135 11.037a.983.983 0 10-.001 1.967.983.983 0 000-1.967z"/><path fill="#00B6FF" d="M82.337 19.455a6.154 6.154 0 110-12.308 6.154 6.154 0 010 12.308m0-15.244a9.09 9.09 0 10.001 18.18 9.09 9.09 0 00-.001-18.18"/><path fill="#7A8499" d="M69.065 12.905c0-.046.001-.092.006-.138l.194-1.938c.01-.561.235-1.085.602-1.48-.289-1.232-.82-2.164-1.536-2.833-1.225-1.15-2.933-1.633-4.677-1.633-1.262 0-2.413.222-3.378.78-1.039.593-1.744 1.447-2.226 2.19-.409-.854-1.077-1.56-1.93-2.08-1.04-.63-2.228-.89-3.49-.89-1.819 0-3.489.63-4.565 1.893h-.111v-1.15c0-.224-.223-.446-.483-.446h-2.746c-.26 0-.483.222-.483.445v15.998c0 .26.222.445.483.445h2.895c.26 0 .445-.186.445-.445V13.68c0-1.633.26-2.97.816-3.935.594-1.04 1.634-1.633 2.858-1.633 1.188 0 2.042.408 2.6 1.039.667.817.964 2.042.964 3.49v8.982c0 .26.222.445.482.445h2.858a.43.43 0 00.446-.445v-8.092c0-1.596.222-2.932.817-3.897.593-.965 1.632-1.522 2.857-1.522 1.188 0 2.041.408 2.598 1.039.669.817.965 2.042.965 3.49v8.982c0 .26.223.445.483.445h2.858c.26 0 .445-.186.445-.445v-5.9a3.138 3.138 0 01-.504-1.405 2.242 2.242 0 01-.543-1.413"/><path fill="#606B80" d="M39.528 18.208c.334-.223.594-.112.705.111l1.077 2.005c.111.223 0 .445-.223.63-1.336.928-3.34 1.485-5.493 1.485-2.97 0-5.382-.928-6.978-2.635-1.448-1.485-2.265-3.638-2.265-6.161 0-2.19.706-4.083 1.894-5.494 1.708-2.115 4.417-3.266 7.423-3.266 2.153 0 4.009.63 5.345 1.559.223.185.334.408.223.63l-1.114 2.079c-.11.26-.408.297-.705.112-1.262-.78-2.376-1.114-3.712-1.114-1.707 0-3.155.631-4.12 1.745-.853.965-1.336 2.264-1.336 3.786 0 1.596.52 3.006 1.448 4.008.928 1.003 2.301 1.56 4.008 1.56 1.374 0 2.599-.298 3.823-1.04M19.672 5.18h2.895a.45.45 0 01.445.445v15.998c0 .26-.186.445-.445.445h-2.895c-.26 0-.484-.185-.484-.445V5.625c0-.223.223-.445.484-.445M3.823 18.764c.854.409 1.708.558 2.896.558 1.298 0 2.746-.334 3.86-1.41.927-.854 1.484-2.302 1.484-4.27 0-1.744-.52-3.117-1.448-4.082-1.038-1.04-2.523-1.596-4.268-1.596-.816 0-1.744.074-2.524.185v10.615zM5.976 4.883c3.006 0 5.642.817 7.424 2.524 1.521 1.448 2.486 3.526 2.486 6.235 0 2.71-.816 4.677-2.078 6.088-1.745 1.93-4.343 2.71-6.718 2.71-1.3 0-2.265-.112-3.267-.52v8.351a.451.451 0 01-.445.445H.482c-.26 0-.482-.223-.482-.445V5.922c0-.26.149-.482.52-.557 1.41-.297 3.489-.482 5.456-.482z"/></g></svg>